<svg width="28" height="19" viewBox="0 0 28 19" fill="none" xmlns="http://www.w3.org/2000/svg">
<g clip-path="url(#clip0_37_146)">
<path d="M1.53696 0H26.458C27.3051 0 27.9949 0.672917 27.9949 1.49922V17.4958C27.9949 18.3221 27.3051 18.9951 26.458 18.9951H1.53696C0.689855 19 0 18.3271 0 17.5008V1.49922C0 0.672917 0.689855 0 1.53696 0Z" fill="#B22234"/>
<path d="M0.0101449 1.35083H27.9949C28 1.40031 28.0051 1.44979 28.0051 1.50422V2.9589H0V1.49927C0 1.44979 0.00507246 1.40031 0.0101449 1.35083ZM28 4.28989V5.89302H0V4.28989H28ZM28 7.22895V8.83208H0V7.22895H28ZM28 10.168V11.7711H0V10.168H28ZM28 13.1071V14.7102H0V13.1071H28ZM28 16.0461V17.4959C28 17.5454 27.9949 17.5998 27.9899 17.6493H0.0101449C0.00507246 17.6047 0 17.5503 0 17.5008V16.0511H28V16.0461Z" fill="white"/>
<path d="M10.5507 0V10.2323H0V1.49922C0 0.672917 0.689855 0 1.53696 0H10.5507Z" fill="#3C3B6E"/>
<path d="M0.623909 1.41516L0.973909 2.47896L0.0507202 1.82089H1.1971L0.268836 2.47896L0.623909 1.41516Z" fill="white"/>
<path d="M0.623909 3.47339L0.973909 4.53719L0.0507202 3.87912H1.1971L0.268836 4.53719L0.623909 3.47339Z" fill="white"/>
<path d="M0.623909 5.53174L0.973909 6.59554L0.0507202 5.93747H1.1971L0.268836 6.59554L0.623909 5.53174Z" fill="white"/>
<path d="M0.623909 7.59009L0.973909 8.65389L0.0507202 7.99582H1.1971L0.268836 8.65389L0.623909 7.59009Z" fill="white"/>
<path d="M1.86158 0.385986L2.21665 1.44979L1.28839 0.791716H2.43984L1.50651 1.44979L1.86158 0.385986Z" fill="white"/>
<path d="M1.86158 2.44421L2.21665 3.50802L1.28839 2.84994H2.43984L1.50651 3.50802L1.86158 2.44421Z" fill="white"/>
<path d="M1.86158 4.50256L2.21665 5.56637L1.28839 4.90829H2.43984L1.50651 5.56637L1.86158 4.50256Z" fill="white"/>
<path d="M1.86158 6.56091L2.21665 7.62471L1.28839 6.96664H2.43984L1.50651 7.62471L1.86158 6.56091Z" fill="white"/>
<path d="M1.86158 8.61926L2.21665 9.68306L1.28839 9.02499H2.43984L1.50651 9.68306L1.86158 8.61926Z" fill="white"/>
<path d="M3.10438 1.41516L3.45945 2.47896L2.53119 1.82089H3.67757L2.74931 2.47896L3.10438 1.41516Z" fill="white"/>
<path d="M3.10438 3.47339L3.45945 4.53719L2.53119 3.87912H3.67757L2.74931 4.53719L3.10438 3.47339Z" fill="white"/>
<path d="M3.10438 5.53174L3.45945 6.59554L2.53119 5.93747H3.67757L2.74931 6.59554L3.10438 5.53174Z" fill="white"/>
<path d="M3.10438 7.59009L3.45945 8.65389L2.53119 7.99582H3.67757L2.74931 8.65389L3.10438 7.59009Z" fill="white"/>
<path d="M4.34711 0.385986L4.69711 1.44979L3.77393 0.791716H4.9203L3.99204 1.44979L4.34711 0.385986Z" fill="white"/>
<path d="M4.34711 2.44421L4.69711 3.50802L3.77393 2.84994H4.9203L3.99204 3.50802L4.34711 2.44421Z" fill="white"/>
<path d="M4.34711 4.50256L4.69711 5.56637L3.77393 4.90829H4.9203L3.99204 5.56637L4.34711 4.50256Z" fill="white"/>
<path d="M4.34711 6.56091L4.69711 7.62471L3.77393 6.96664H4.9203L3.99204 7.62471L4.34711 6.56091Z" fill="white"/>
<path d="M4.34711 8.61926L4.69711 9.68306L3.77393 9.02499H4.9203L3.99204 9.68306L4.34711 8.61926Z" fill="white"/>
<path d="M5.58479 1.41516L5.93986 2.47896L5.0116 1.82089H6.15797L5.22971 2.47896L5.58479 1.41516Z" fill="white"/>
<path d="M5.58479 3.47339L5.93986 4.53719L5.0116 3.87912H6.15797L5.22971 4.53719L5.58479 3.47339Z" fill="white"/>
<path d="M5.58479 5.53174L5.93986 6.59554L5.0116 5.93747H6.15797L5.22971 6.59554L5.58479 5.53174Z" fill="white"/>
<path d="M5.58479 7.59009L5.93986 8.65389L5.0116 7.99582H6.15797L5.22971 8.65389L5.58479 7.59009Z" fill="white"/>
<path d="M6.82752 0.385986L7.18259 1.44979L6.25433 0.791716H7.40071L6.47245 1.44979L6.82752 0.385986Z" fill="white"/>
<path d="M6.82752 2.44421L7.18259 3.50802L6.25433 2.84994H7.40071L6.47245 3.50802L6.82752 2.44421Z" fill="white"/>
<path d="M6.82752 4.50256L7.18259 5.56637L6.25433 4.90829H7.40071L6.47245 5.56637L6.82752 4.50256Z" fill="white"/>
<path d="M6.82752 6.56091L7.18259 7.62471L6.25433 6.96664H7.40071L6.47245 7.62471L6.82752 6.56091Z" fill="white"/>
<path d="M6.82752 8.61926L7.18259 9.68306L6.25433 9.02499H7.40071L6.47245 9.68306L6.82752 8.61926Z" fill="white"/>
<path d="M8.06519 1.41516L8.42027 2.47896L7.492 1.82089H8.63838L7.71519 2.47896L8.06519 1.41516Z" fill="white"/>
<path d="M8.06519 3.47339L8.42027 4.53719L7.492 3.87912H8.63838L7.71519 4.53719L8.06519 3.47339Z" fill="white"/>
<path d="M8.06519 5.53174L8.42027 6.59554L7.492 5.93747H8.63838L7.71519 6.59554L8.06519 5.53174Z" fill="white"/>
<path d="M8.06519 7.59009L8.42027 8.65389L7.492 7.99582H8.63838L7.71519 8.65389L8.06519 7.59009Z" fill="white"/>
<path d="M9.30799 0.385986L9.66306 1.44979L8.7348 0.791716H9.88118L8.95292 1.44979L9.30799 0.385986Z" fill="white"/>
<path d="M9.30799 2.44421L9.66306 3.50802L8.7348 2.84994H9.88118L8.95292 3.50802L9.30799 2.44421Z" fill="white"/>
<path d="M9.30799 4.50256L9.66306 5.56637L8.7348 4.90829H9.88118L8.95292 5.56637L9.30799 4.50256Z" fill="white"/>
<path d="M9.30799 6.56091L9.66306 7.62471L8.7348 6.96664H9.88118L8.95292 7.62471L9.30799 6.56091Z" fill="white"/>
<path d="M9.30799 8.61926L9.66306 9.68306L8.7348 9.02499H9.88118L8.95292 9.68306L9.30799 8.61926Z" fill="white"/>
</g>
<defs>
<clipPath id="clip0_37_146">
<circle cx="11" cy="9" r="9" />
</clipPath>
</defs>
</svg>
