<svg width="40" height="30" viewBox="0 0 40 30" fill="none" xmlns="http://www.w3.org/2000/svg">
<g clip-path="url(#clip0_6_10)">
<path d="M1.56402 0.0296021H26.431C27.2762 0.0296021 27.9646 0.700422 27.9646 1.52415V9.50001H0.0303955V1.52415C0.0303955 0.700422 0.718754 0.0296021 1.56402 0.0296021Z" fill="white"/>
<path d="M0.0303955 9.5H27.9697V17.4759C27.9697 18.2996 27.2813 18.9704 26.436 18.9704H1.56402C0.718754 18.9704 0.0303955 18.2947 0.0303955 17.4759V9.5Z" fill="#D52B1E"/>
<path d="M0.0303955 6.3432H27.9697V12.6568H0.0303955V6.3432Z" fill="#0039A6"/>
<path d="M1.56402 0.0296021H26.431C27.2762 0.0296021 27.9646 0.700422 27.9646 1.52415V17.4709C27.9646 18.2947 27.2762 18.9655 26.431 18.9655H1.56402C0.718754 18.9655 0.0303955 18.2897 0.0303955 17.4709V1.52415C0.0303955 0.700422 0.718754 0.0296021 1.56402 0.0296021Z" stroke="#CCCCCC" stroke-width="0.1199" stroke-miterlimit="2.6131"/>
</g>
<defs>
<clipPath id="clip0_6_10">
<circle cx="14" cy="9" r="9"/>
</clipPath>
</defs>
</svg>
